<?xml version="1.0" encoding="iso-8859-1"?>
<!-- Generator: Adobe Illustrator 16.0.0, SVG Export Plug-In . SVG Version: 6.00 Build 0)  -->
<!DOCTYPE svg PUBLIC "-//W3C//DTD SVG 1.1//EN" "http://www.w3.org/Graphics/SVG/1.1/DTD/svg11.dtd">
<svg xmlns="http://www.w3.org/2000/svg" xmlns:xlink="http://www.w3.org/1999/xlink" version="1.1" id="Capa_1" x="0px" y="0px" width="512px" height="512px" viewBox="0 0 890 890" style="enable-background:new 0 0 890 890;" xml:space="preserve">
<g>
	<path d="M0,445c0,245.8,199.2,445,445,445s445-199.2,445-445S690.8,0,445,0S0,199.2,0,445z M445,291.5   c84.6,0,153.5,68.9,153.5,153.5S529.6,598.5,445,598.5S291.5,529.6,291.5,445S360.4,291.5,445,291.5z" fill="#368cbf"/>
	<path d="M445,553.5c59.8,0,108.5-48.7,108.5-108.5S504.8,336.5,445,336.5S336.5,385.2,336.5,445S385.2,553.5,445,553.5z M445,389.4   c30.7,0,55.6,24.899,55.6,55.6S475.7,500.6,445,500.6S389.4,475.7,389.4,445S414.3,389.4,445,389.4z" fill="#368cbf"/>
</g>
<g>
</g>
<g>
</g>
<g>
</g>
<g>
</g>
<g>
</g>
<g>
</g>
<g>
</g>
<g>
</g>
<g>
</g>
<g>
</g>
<g>
</g>
<g>
</g>
<g>
</g>
<g>
</g>
<g>
</g>
</svg>
